# xmcd
# Track frame offsets:
# 150
# 15712
# 33824
# 47586
# 65998
# 84785
# 101172
# 117334
# 134021
# 150183
# 166345
# 185657
# 202044
# 217437
# 233899
# 249536
# 266598
# 284185
#
# Disc length: 3982 seconds
# Revision: 7
# Processed by: cddbd v1.5.2PL0 Copyright (c) Steve Scherf et al.
# Submitted via: VisiTrax 2.11.2.271 - For more info visit www.synapsa.com
#
DISCID=110f8c12
DTITLE=Various Artist - Promo Only Country Radio - February 2009
DYEAR=2009
DGENRE=Country
TTITLE0=Daniellle Peck - Can't Behave
TTITLE1=Chuck Wicks - Man Of The House
TTITLE2=Trace Adkins - Marry For Money
TTITLE3=Keith Anderson - She Could've Been Mine (Album Version)
TTITLE4=Tim McGraw - Nothin' To Die For (Album Version)
TTITLE5=Justin Moore - Small Town USA
TTITLE6=Mark Chesnutt - Things To Do In Wichita
TTITLE7=Darryl Worley - Sounds Like Life To Me
TTITLE8=Holly Williams - Keep The Change
TTITLE9=Trailer Choir - What Would You Say
TTITLE10=Carrie Underwood - I Told you So (Album Version)
TTITLE11=Jim Van Fleet and The Reign - Living Florida Country
TTITLE12=Trent Tomlinson - That's how It Still Oughta Be
TTITLE13=Craig Morgan - God Must Really Love Me (Album Version)
TTITLE14=Pat Roper - Now We're Getting Somewhere
TTITLE15=Ashleigh Flynn - The 7th Sea (Album Version)
TTITLE16=Stephanie Chapman - Long Hot Summer (Album Version)
TTITLE17=Jeff Leonard - I'll Take My Chances Loving You (Album Version)
EXTD=YEAR: 2009
EXTT0=
EXTT1=
EXTT2=
EXTT3=
EXTT4=
EXTT5=
EXTT6=
EXTT7=
EXTT8=
EXTT9=
EXTT10=
EXTT11=
EXTT12=
EXTT13=
EXTT14=
EXTT15=
EXTT16=
EXTT17=
PLAYORDER=
